<svg id="Layer_1" data-name="Layer 1" xmlns="http://www.w3.org/2000/svg" viewBox="0 0 1406.92 421.15"><defs><style>.cls-1{fill:#fefefe;}.cls-2{fill:#45119b;}.cls-3{fill:#fe4000;}.cls-4{fill:#43119d;}.cls-5{fill:#8563be;}.cls-6{fill:#6134aa;}.cls-7{fill:#fdfdfd;}</style></defs><path class="cls-1" d="M959.53,750q-347,0-694,.17c-7,0-8.56-1.56-8.55-8.51q.36-202.51,0-405c0-6.35,1.25-7.59,7.62-7.59q695.85.28,1391.68,0c6.37,0,7.64,1.24,7.62,7.59q-.35,203,0,406c0,6.35-1.25,7.6-7.62,7.6Q1307.93,749.84,959.53,750Z" transform="translate(-257 -329)"/><path class="cls-2" d="M1138.43,745.92l-.63.14-.61-.21c-1.72-3.54-.83-7.31-.83-11q-.09-193.59-.13-387.18c0-3.14,1.4-6.67-.52-8.81,1.81,1.51.48,4.5.48,7.07q.11,195.9,0,391.81c0,2.73.7,5.58-.87,8.16-23.85.1-47.71.09-71.56.4-4.77.06-6.81-1.46-6.65-6.19.15-4.21,0-8.42,0-14A142,142,0,0,1,1004,745c-74.23,10.83-132.86-30.44-145.9-103.65-1.39-7.8-4.2-9.62-11.82-9.57q-79,.56-158,0c-8.24-.06-10.13,2.25-8.3,10,4.88,20.6,20.29,33.75,41.53,34.5,9.62.34,19.21-.15,28.58-2.68,6.4-1.74,13.1-4.13,16.32-9.85,4-7,9.27-7.51,16.14-7.42q33,.47,66,0c6.38-.09,7.22,1.43,5,7.33-17.82,48-53.41,73.34-103.09,80.56-28.89,4.2-57.71,3.56-85-7.89-45.7-19.19-70.24-54.74-77.33-103-2.1-4.28,1-9.28-1.9-13.42-.09-.13-.52-.12-.73,0a2.93,2.93,0,0,0-.68.55c-27.69,79.77-92.31,125.74-176.73,125.75-42.77,0-85.54-.23-128.31.2-8,.08-9.47-2.36-9.46-9.81q.36-185.74,0-371.5c0-7.87,1.45-10.44,10-10.34,42.46.51,84.92.24,127.39.24,95.16,0,168.15,61.4,184.44,155.18,2.59,14.92,4.42,29.91,3.5,45.1-1,2.24-1.84,5.26.65,6.14,2.73,1,1.69-3.07,3.23-4.25,21.63-47.17,59.09-72.49,110.23-77.58,26.41-2.62,52.55.17,77.45,10.47,38.74,16,61.39,45.49,72.63,88,13.53-42.73,37.57-73.95,79.65-86.37,39.89-11.77,79.41-10.1,117.52,11.4.16-3.51.43-6.69.43-9.88,0-49.73.2-99.45-.17-149.18-.06-7.89,2.31-9.83,9.91-9.65,23.85.59,47.72.43,71.58.56,4.25,4.27,3.3,9.76,3.3,14.9q.11,190.65,0,381.31c0,2.16,0,4.33-.16,6.48C1141.67,740.83,1141.31,743.92,1138.43,745.92Z" transform="translate(-257 -329)"/><path class="cls-3" d="M1138.43,745.92q0-199.42.09-398.85c0-4,.17-8,.25-12q74.34-.14,148.67-.27c22,0,44,.18,66-.12,5.76-.08,7.44,1.78,7.38,7.4-.24,24.7-.33,49.4.05,74.1.1,6.44-2.25,7.57-8.05,7.53-34.7-.24-69.42.08-104.12-.28-7.25-.08-9.59,1.62-9.34,9.19.6,18.82.35,37.67.1,56.5-.07,5.15,1.39,7.36,6.81,6.91,5.85-.48,11.75-.55,17.63-.53q95.73.27,191.46.68c2.61,0,5.65-1.22,7.72,1.63-3.75,3.73-8.61,2.94-13.15,3-23.51.13-47,0-70.52.08-4.61,0-9.35-.37-13.35,2.67-3.84,3-2.56,7.4-2.6,11.21-.21,18.82,0,37.64-.11,56.46-.08,14.9-1.73,16.63-16.43,16.68-30,.11-60.07,0-90.11,0-14.06,0-14.33.3-14.37,14.66,0,13.58-.12,27.15,0,40.73.11,10,1.07,11,11.34,11.07,30,.12,60.08,0,90.12.06,17.42,0,19.33,1.94,19.42,19,.1,19.09-.11,38.18.11,58.07,4-.57,5.87-4.47,9.34-4.18,2.67,2,1.8,4.56.53,6.6-4.92,7.91.28,7.8,5.87,7.79,23.54,0,47.08-.09,70.62,0,4.53,0,9.41-1,13.21,2.77-1.64,2.81-4.41,1.71-6.69,1.72q-157.59.07-315.16,0A25.75,25.75,0,0,1,1138.43,745.92Z" transform="translate(-257 -329)"/><path class="cls-3" d="M1364,502.13c1.09-6.11,6-4.18,9.58-4.2,29.85-.15,59.7-.13,89.55-.15,13.81,16.26,25.19,34.3,37.59,51.59,4,5.51,5.77,6.4,9.91.1,10.36-15.75,21.56-31,32.12-46.57,3.21-4.75,6.58-7,12.75-7,31.3.37,62.6.17,93.87.17,1.48,3.7-1.56,5.28-3.06,7.28-27.5,36.58-54.94,73.22-82.82,109.51-4.33,5.64-3.65,8.91.39,14.1,29.21,37.61,58.09,75.48,87.07,113.28,1.08,1.42,2,3,3.06,4.5-2.67,2.55-5.58,1.4-8.15,1.41-27.59.1-55.19-.38-82.76.31-9.53.24-15.06-2.85-20.24-10.67-11.39-17.21-23.9-33.69-36.4-51.08l-43.37,59.74c-30,0-60,0-89.93-.13-2.62,0-6.21,1.46-7.67-1.39-1.57-3.08,2.72-4.28,3.7-6.72,1.22-3.07,4.72-5.1,4.15-9-2-4,1.21-6.42,3.17-8.91,23.31-29.66,45-60.51,68.6-90,5-6.21,5.09-10.74.07-16.94-25.66-31.74-49.81-64.65-75.08-96.7C1367.22,511.1,1362.35,508.05,1364,502.13Z" transform="translate(-257 -329)"/><path class="cls-4" d="M1135.35,746V338.54h1.84V745.85Z" transform="translate(-257 -329)"/><path class="cls-5" d="M584.83,620.51c-.27-1.8-.69-4.36,1.32-4.66,2.44-.37,2.17,2.32,2.18,4,0,4.52-.12,9-.19,13.56C585,629.62,588.31,624.21,584.83,620.51Z" transform="translate(-257 -329)"/><path class="cls-6" d="M599.54,557.22c.34,3.48-.9,6.24-4.19,9.37-1.86-4.47-2.54-7.85.31-11.26.18,1.46.37,2.92.56,4.38Z" transform="translate(-257 -329)"/><path class="cls-1" d="M367,550.81c0-34.56.16-69.11-.14-103.66-.05-6.37,1.6-8.19,8.18-8.4,28.89-.93,56.42,2.58,79.36,22.19,30.48,26.05,42.31,60.09,40,99-2.12,35.58-16.29,65.43-46.54,86.41-23.28,16.14-49.65,17.31-76.55,16.29-6.41-.24-4.2-5.07-4.21-8.2C366.92,619.91,367,585.36,367,550.81Z" transform="translate(-257 -329)"/><path class="cls-1" d="M1004.28,665.46a52.15,52.15,0,0,1-51.65-52.2c.16-27.74,23.91-51.42,51.67-51.52,28.17-.1,53.19,25.13,52.47,52.93S1032,665.66,1004.28,665.46Z" transform="translate(-257 -329)"/><path class="cls-7" d="M723.22,576.86c-11.74,0-23.5-.43-35.2.15-8.37.42-8.59-3.06-6-9.16,7.31-17.23,21.58-23.54,39.06-24.66,20.35-1.3,38.41,9.79,44.54,26.45,2.25,6.11.69,7.47-5.33,7.32C747.94,576.65,735.58,576.86,723.22,576.86Z" transform="translate(-257 -329)"/><path class="cls-1" d="M1364,502.13q32.79,43,65.6,85.93c6.55,8.57,13,17.27,19.93,25.5,3.9,4.6,3.76,7.81,0,12.62-24.67,32-49,64.22-73.41,96.4a50,50,0,0,0-2.83,4.67l-12.57,14.54c0-25.84-.35-49.48.18-73.09.19-8.18-1.57-11.06-10.5-10.91-34.07.58-68.16,0-102.24.4-7.07.08-8.93-2-8.76-8.88q.69-28.23,0-56.49c-.16-6.7,2.11-8.25,8.44-8.17,33.46.4,66.91.45,100.37.48,12.51,0,12.51-.15,12.51-12.48,0-21.3-.1-42.6.14-63.9C1360.89,506.53,1358,502,1364,502.13Z" transform="translate(-257 -329)"/></svg>